HIERARCHY
ROOT Hips
{
	OFFSET -3.958830 18.904000 13.208200
	CHANNELS 6 Xposition Yposition Zposition Zrotation Yrotation Xrotation 
	JOINT LHipJoint
	{
		OFFSET 0.000000 0.000000 0.000000
		CHANNELS 3 Zrotation Yrotation Xrotation
		JOINT LeftUpLeg
		{
			OFFSET 1.800000 -1.400000 0.085000
			CHANNELS 3 Zrotation Yrotation Xrotation
			JOINT LeftLeg
			{
				OFFSET 2.215000 -6.000000 0.000000
				CHANNELS 3 Zrotation Yrotation Xrotation
				JOINT LeftFoot
				{
					OFFSET 2.500000 -6.900000 0.000000
					CHANNELS 3 Zrotation Yrotation Xrotation
					JOINT LeftToeBase
					{
						OFFSET 0.200000 -0.500000 1.950000
						CHANNELS 3 Zrotation Yrotation Xrotation
						End Site
						{
							OFFSET 0.000000 0.000000 0.000000
						}
					}
				}
			}
		}
	}
	JOINT RHipJoint
	{
		OFFSET 0.000000 0.000000 0.000000
		CHANNELS 3 Zrotation Yrotation Xrotation
		JOINT RightUpLeg
		{
			OFFSET -1.800000 -1.400000 0.085000
			CHANNELS 3 Zrotation Yrotation Xrotation
			JOINT RightLeg
			{
				OFFSET -2.215000 -6.000000 0.000000
				CHANNELS 3 Zrotation Yrotation Xrotation
				JOINT RightFoot
				{
					OFFSET -2.500000 -6.900000 0.000000
					CHANNELS 3 Zrotation Yrotation Xrotation
					JOINT RightToeBase
					{
						OFFSET -0.200000 -0.500000 1.950000
						CHANNELS 3 Zrotation Yrotation Xrotation
						End Site
						{
							OFFSET 0.000000 0.000000 0.000000
						}
					}
				}
			}
		}
	}
	JOINT LowerBack
	{
		OFFSET 0.000000 0.000000 0.000000
		CHANNELS 3 Zrotation Yrotation Xrotation
		JOINT Spine
		{
			OFFSET -0.087000 1.940000 -0.288900
			CHANNELS 3 Zrotation Yrotation Xrotation
			JOINT Spine1
			{
				OFFSET 0.000000 1.950000 0.060000
				CHANNELS 3 Zrotation Yrotation Xrotation
				JOINT Neck
				{
					OFFSET 0.000000 0.000000 0.000000
					CHANNELS 3 Zrotation Yrotation Xrotation
					JOINT Neck1
					{
						OFFSET 0.000000 1.600000 0.340000
						CHANNELS 3 Zrotation Yrotation Xrotation
						JOINT Head
						{
							OFFSET 0.000000 1.667000 -0.240000
							CHANNELS 3 Zrotation Yrotation Xrotation
							End Site
							{
								OFFSET 0.000000 0.000000 0.000000
							}
						}
					}
				}
				JOINT LeftShoulder
				{
					OFFSET 0.000000 0.000000 0.000000
					CHANNELS 3 Zrotation Yrotation Xrotation
					JOINT LeftArm
					{
						OFFSET 2.700000 1.550000 -0.730000
						CHANNELS 3 Zrotation Yrotation Xrotation
						JOINT LeftForeArm
						{
							OFFSET 5.450000 0.000000 0.000000
							CHANNELS 3 Zrotation Yrotation Xrotation
							JOINT LeftHand
							{
								OFFSET 3.450000 0.000000 0.000000
								CHANNELS 3 Zrotation Yrotation Xrotation
								JOINT LeftHandIndex1
								{
									OFFSET 0.750000 0.000000 0.000000
									CHANNELS 3 Zrotation Yrotation Xrotation
									End Site
									{
										OFFSET 0.000000 0.000000 0.000000
									}
								}
							}
						}
					}
				}
				JOINT RightShoulder
				{
					OFFSET 0.000000 0.000000 0.000000
					CHANNELS 3 Zrotation Yrotation Xrotation
					JOINT RightArm
					{
						OFFSET -2.700000 1.550000 -0.730000
						CHANNELS 3 Zrotation Yrotation Xrotation
						JOINT RightForeArm
						{
							OFFSET -5.450000 0.000000 0.000000
							CHANNELS 3 Zrotation Yrotation Xrotation
							JOINT RightHand
							{
								OFFSET -3.450000 0.000000 0.000000
								CHANNELS 3 Zrotation Yrotation Xrotation
								JOINT RightHandIndex1
								{
									OFFSET -0.750000 0.000000 0.000000
									CHANNELS 3 Zrotation Yrotation Xrotation
									End Site
									{
										OFFSET 0.000000 0.000000 0.000000
									}
								}
							}
						}
					}
				}
			}
		}
	}
}
MOTION
Frames: 7
Frame Time: 0.016667
0.851600 17.062270 0.461570 -4.134657 -67.081826 -2.978267 -15.208140 15.564937 3.461039 6.340730 -1.411495 0.290826 -8.531633 8.950142 21.568187 1.162363 5.234803 2.783332 0.535380 0.311550 0.460910 17.920416 -9.478871 3.334782 -2.204246 2.939395 -29.840965 10.190626 -7.134764 25.372263 -0.461132 -2.660172 3.511767 -0.356990 -0.485010 0.024710 -1.670851 -7.732917 -7.631555 3.632959 -11.363301 36.785147 1.048739 -5.569966 -33.992244 10.662341 -7.972994 -7.779068 -42.133617 33.079920 34.501119 3.931700 19.500340 -4.336650 -18.152345 26.416868 0.663078 -45.158084 29.488714 -6.139833 -110.970354 -50.484995 59.590012 -2.606575 3.965280 0.654640 -0.664730 0.555000 0.254590 5.258823 -25.271327 0.354047 57.982507 -25.591720 -17.079919 0.961876 9.840889 0.087964 3.243422 -0.579084 0.349460 -0.265360 -0.547080 0.024210 
0.731870 17.119010 0.453720 -7.663647 -69.589019 0.821094 -15.385015 15.943250 3.485914 6.551648 -1.149456 0.626276 -7.327460 8.773952 21.627646 1.161820 5.197771 2.784822 0.551480 0.324170 0.518570 17.741104 -9.160295 3.365481 -1.141217 3.463046 -26.662874 12.304492 -6.548380 20.782532 -0.449051 -2.204943 3.693125 -0.361340 -0.535660 0.017780 -0.998415 -8.760353 -7.808383 1.663060 -9.807240 33.691857 4.414066 -1.979055 -32.938220 11.347184 -6.981082 -8.725994 -40.903656 34.469805 40.304304 4.589310 20.468940 -2.627840 -16.128209 27.077739 2.046025 -44.258371 34.567564 -6.329213 -110.304039 -46.248011 53.944431 -2.570839 3.934078 0.709140 -0.686670 0.611390 0.245940 2.530717 -24.509132 1.711810 56.927447 -26.606054 -17.186369 1.917740 10.423844 0.201319 3.211416 -0.574592 0.342660 -0.270840 -0.577330 -0.008660 
0.609990 17.144360 0.454360 -12.475090 -71.499749 6.542770 -15.659405 16.193354 3.453285 6.774992 -1.064918 0.215852 -6.032924 8.583170 22.169478 1.116919 5.174626 2.772825 0.539160 0.283280 0.562450 17.476970 -8.863040 3.492184 0.385986 4.143556 -24.655228 13.948312 -5.998915 17.022223 -0.414188 -1.938331 3.793572 -0.374890 -0.570170 0.023480 -0.589838 -9.453310 -8.021579 1.218754 -8.466682 29.234290 7.672163 0.924640 -30.498362 11.031452 -6.687169 -9.511834 -38.978888 33.920967 44.310808 4.220510 21.106670 -0.049080 -13.539377 27.758307 3.570081 -43.654344 38.640946 -5.984244 -110.949205 -41.705827 49.304742 -2.569818 3.953028 0.728640 -0.668860 0.610690 0.210880 0.612904 -23.524449 2.264854 56.965049 -26.066685 -16.744884 -1.015247 8.207103 0.201346 3.286966 -0.565683 0.324300 -0.316270 -0.577840 -0.059470 
0.523650 17.168360 0.463630 -17.640056 -72.524826 12.036859 -15.914434 16.358070 3.393198 6.780353 -0.937153 0.142960 -4.116713 8.111029 22.664504 1.090430 5.076876 2.806497 0.513500 0.246110 0.573930 17.222220 -8.730739 3.601805 1.993576 4.506316 -22.747114 14.436392 -5.480305 14.320589 -0.390703 -1.771776 3.866511 -0.396860 -0.569440 0.033840 -0.422157 -9.857303 -8.162931 1.749683 -7.840621 26.340074 10.043894 2.634293 -28.336436 10.429850 -6.703278 -10.166913 -37.357593 33.434755 46.566709 4.776250 21.300390 1.659370 -11.473791 28.507437 5.097152 -43.072543 43.400755 -6.312389 -113.298373 -38.448980 46.881890 -2.570451 3.987079 0.725340 -0.642410 0.604470 0.192740 -0.488656 -22.999526 2.453386 56.750449 -25.072611 -16.335277 -3.037704 6.958647 0.264761 3.339131 -0.580181 0.316290 -0.342560 -0.574620 -0.079070 
0.445640 17.189920 0.461810 -21.730333 -72.280908 16.619000 -16.130124 16.479484 3.312311 6.916960 -1.027812 -0.348163 -2.073345 7.496239 23.153604 1.032362 4.964853 2.838764 0.470810 0.176050 0.575440 17.009497 -8.639556 3.697125 3.749932 4.611434 -20.962103 14.343662 -4.986765 11.938790 -0.359802 -1.646085 3.908277 -0.427630 -0.560010 0.049720 -0.217810 -10.212782 -8.308218 1.705249 -7.377964 23.623424 13.080757 3.927023 -25.965795 9.778002 -6.755822 -10.923846 -36.077239 32.732640 47.760627 5.805520 20.808540 3.180550 -8.855684 28.387435 6.613986 -42.557948 45.789092 -5.837807 -113.799778 -34.355038 42.689038 -2.575548 4.021972 0.723380 -0.614770 0.579660 0.157200 -1.867579 -22.131606 2.993005 56.679341 -25.166803 -16.409434 -3.485644 7.333903 0.282181 3.333112 -0.613216 0.299490 -0.375040 -0.547050 -0.104800 
0.389250 17.213690 0.454200 -23.714567 -72.591589 19.064638 -16.253756 16.523763 3.261509 6.294013 -1.015804 -0.696924 -0.502183 7.019718 23.838855 1.025120 4.872023 2.886390 0.436250 0.147660 0.549880 16.895873 -8.649671 3.709850 5.011784 4.498832 -19.799712 12.911421 -4.562849 11.125045 -0.326284 -1.533302 3.969899 -0.442860 -0.530800 0.040300 -0.057182 -10.313680 -8.356375 0.810469 -6.712332 21.612034 16.057744 4.893745 -24.238723 8.979026 -6.817966 -11.417130 -35.901676 32.380509 47.519182 6.945440 20.062300 3.614960 -5.392394 28.577515 7.971722 -40.630090 45.807908 -3.635157 -115.392208 -30.669412 41.267796 -2.562091 4.070720 0.703910 -0.594540 0.559210 0.157390 -3.601393 -22.276583 3.348288 56.400793 -25.238376 -16.661180 -2.851896 9.220338 0.254380 3.288744 -0.658186 0.286540 -0.366390 -0.540730 -0.096560 
0.357230 17.252010 0.430900 -25.992624 -73.802289 21.757213 -16.344302 16.470243 3.225635 5.588659 -0.999044 -0.872482 0.539030 6.652208 24.207882 1.020844 4.765220 2.929929 0.443950 0.157710 0.562720 16.809891 -8.673462 3.802614 6.429298 4.549881 -19.268011 11.942079 -4.039031 9.439163 -0.319736 -1.372552 4.034056 -0.440460 -0.528960 0.031560 -0.087498 -10.263944 -8.373793 0.418494 -6.420861 20.308539 17.271516 5.455134 -23.864752 8.610668 -6.408191 -12.009587 -36.023177 33.249213 48.157242 8.684130 19.938930 4.162350 -3.229397 28.641140 9.209447 -38.390719 45.717053 -1.284470 -118.406148 -30.298072 45.149560 -2.552385 4.131939 0.709470 -0.600610 0.567870 0.166480 -4.706493 -23.025625 3.285037 55.977008 -24.083330 -16.304000 -2.395190 9.567305 0.255334 3.282002 -0.669736 0.282500 -0.360560 -0.560780 -0.095080 
